<svg xmlns="http://www.w3.org/2000/svg"
     viewBox="0 0 900 700">
  <defs>
    <linearGradient id="bg" x1="0" x2="1" y1="0" y2="1">
      <stop offset="0" stop-color="#faf5ec"/>
      <stop offset="1" stop-color="#e8dded"/>
    </linearGradient>
    <linearGradient id="oil" x1="0" x2="1">
      <stop offset="0" stop-color="#8b5b24"/>
      <stop offset="1" stop-color="#c18a39"/>
    </linearGradient>
  </defs>

  <rect width="900" height="700" fill="url(#bg)"/>

  <ellipse cx="470" cy="598"
           rx="235" ry="34"
           fill="#d9cbbd"
           opacity=".55"/>

  <path d="M150 520 C220 370 300 290 380 260"
        stroke="#63764d"
        stroke-width="15"
        fill="none"/>

  <g fill="#7c905d">
    <ellipse cx="210" cy="435" rx="43" ry="18" transform="rotate(-35 210 435)"/>
    <ellipse cx="260" cy="380" rx="44" ry="18" transform="rotate(-28 260 380)"/>
    <ellipse cx="305" cy="335" rx="43" ry="18" transform="rotate(-22 305 335)"/>
  </g>

  <rect x="390" y="235"
        width="190" height="340"
        rx="48"
        fill="url(#oil)"/>

  <rect x="425" y="165"
        width="120" height="90"
        rx="18"
        fill="#2b2421"/>

  <rect x="410" y="325"
        width="150" height="120"
        rx="22"
        fill="#f8eee0"
        opacity=".94"/>

  <text x="485" y="365"
        text-anchor="middle"
        font-family="Georgia,serif"
        font-size="31"
        font-weight="700"
        fill="#5b3f70">
    RUKHNAV
  </text>

  <text x="485" y="405"
        text-anchor="middle"
        font-family="Arial,sans-serif"
        font-size="22"
        fill="#4e443d">
    HAIR CARE
  </text>

  <text x="450" y="655"
        text-anchor="middle"
        font-family="Georgia,serif"
        font-size="34"
        font-weight="700"
        fill="#5b3f70">
    Herbal Hair Care
  </text>
</svg>
